<svg width="16" height="16" viewBox="0 0 16 16" fill="none" xmlns="http://www.w3.org/2000/svg">
<path d="M2.94666 13.7193C2.85417 13.7192 2.76272 13.6997 2.67813 13.6623C2.59354 13.6249 2.51767 13.5703 2.45533 13.502C2.39186 13.4342 2.34343 13.3538 2.31321 13.2661C2.283 13.1783 2.27168 13.0851 2.27999 12.9926L2.44333 11.1966L9.98866 3.65398L12.3467 6.01131L4.80333 13.5533L3.00733 13.7166C2.98716 13.7185 2.96691 13.7194 2.94666 13.7193V13.7193ZM12.8173 5.53998L10.46 3.18264L11.874 1.76864C11.9359 1.70666 12.0094 1.65749 12.0904 1.62394C12.1713 1.59039 12.258 1.57312 12.3457 1.57312C12.4333 1.57312 12.52 1.59039 12.601 1.62394C12.6819 1.65749 12.7554 1.70666 12.8173 1.76864L14.2313 3.18264C14.2933 3.24456 14.3425 3.31809 14.376 3.39902C14.4096 3.47995 14.4269 3.5667 14.4269 3.65431C14.4269 3.74192 14.4096 3.82867 14.376 3.9096C14.3425 3.99054 14.2933 4.06406 14.2313 4.12598L12.818 5.53931L12.8173 5.53998V5.53998Z" fill="#005E72"/>
</svg>
