<svg width="61" height="61" viewBox="0 0 61 61" fill="none" xmlns="http://www.w3.org/2000/svg">
<path d="M54.0959 21.0343L38.971 18.8361L32.2097 5.12898C32.0251 4.75368 31.7212 4.44988 31.346 4.26521C30.4047 3.80056 29.261 4.18777 28.7904 5.12898L22.0292 18.8361L6.90426 21.0343C6.48727 21.0938 6.10602 21.2904 5.81412 21.5883C5.46124 21.951 5.26678 22.4389 5.27348 22.9449C5.28019 23.4509 5.4875 23.9336 5.84986 24.2868L16.7929 34.9558L14.2076 50.0212C14.147 50.3716 14.1857 50.7321 14.3195 51.0616C14.4533 51.3911 14.6768 51.6766 14.9645 51.8856C15.2523 52.0946 15.5929 52.2188 15.9476 52.2441C16.3024 52.2694 16.6571 52.1947 16.9716 52.0287L30.5001 44.916L44.0285 52.0287C44.3978 52.2253 44.8267 52.2908 45.2378 52.2193C46.2743 52.0406 46.9713 51.0577 46.7925 50.0212L44.2072 34.9558L55.1503 24.2868C55.4481 23.9949 55.6447 23.6136 55.7043 23.1967C55.8651 22.1542 55.1383 21.1891 54.0959 21.0343V21.0343Z" fill="white"/>
</svg>
